<svg width="32" height="32" viewBox="0 0 32 32" fill="none" xmlns="http://www.w3.org/2000/svg">
<path d="M32 16C32 7.16344 24.8366 0 16 0C7.16344 0 0 7.16344 0 16C0 24.8366 7.16344 32 16 32C24.8366 32 32 24.8366 32 16Z" fill="#FCDE4D"/>
<path d="M27.703 15.3229L28 14.3251L26.9694 14.3577C26.4939 14.339 26.0343 14.181 25.6478 13.9033C25.6953 13.9033 25.7399 13.9033 25.7874 13.9033C26.0967 13.9025 26.3995 13.8153 26.6619 13.6516C26.9243 13.4879 27.1357 13.2541 27.2724 12.9767L27.7149 11.9937C27.3585 11.9967 27.0023 11.9758 26.6487 11.9313C26.3116 11.8514 26.0082 11.6675 25.7815 11.4056C25.6291 11.2429 25.4452 11.1129 25.2409 11.0235C25.0367 10.9342 24.8164 10.8873 24.5935 10.8859C24.417 10.8867 24.2417 10.9147 24.0738 10.969C24.0989 10.8892 24.1187 10.8079 24.1332 10.7255C24.2028 10.1466 24.0405 9.56357 23.6817 9.10392L22.9095 8.14463L22.4284 9.2732C22.3525 9.43334 22.2358 9.57062 22.0898 9.67117C22.0077 9.26955 21.8094 8.90089 21.5196 8.61091C21.279 8.36433 20.9911 8.16884 20.6732 8.03615C20.3553 7.90347 20.0138 7.83632 19.6693 7.83873C19.5481 7.83811 19.4269 7.84705 19.307 7.86546L18.3804 8.04662C18.4615 7.73217 18.5897 7.43178 18.7605 7.15564L19.2714 6.33891L17.9676 6.4785L17.5548 5.58752L16.7529 6.00034L16.0045 5.29053L15.2709 6.02113L14.466 5.60831L14.0532 6.4785L12.7554 6.33L13.2721 7.14376C13.4425 7.41981 13.5697 7.72027 13.6493 8.03474L12.7583 7.85952H12.7286C12.6048 7.84076 12.4797 7.83182 12.3544 7.83279C12.0099 7.83021 11.6684 7.89728 11.3504 8.02998C11.0325 8.16267 10.7446 8.35825 10.5041 8.60497C10.2134 8.89468 10.0141 9.26333 9.93095 9.66523C9.78695 9.56717 9.67122 9.43301 9.59535 9.27617L9.11422 8.14463L8.32719 9.10986C7.9745 9.57003 7.81569 10.1498 7.88467 10.7255C7.89934 10.8078 7.91918 10.8892 7.94407 10.969C7.77622 10.9144 7.60085 10.8863 7.42433 10.8859C7.20143 10.8875 6.9812 10.9344 6.77698 11.0238C6.57277 11.1131 6.38884 11.243 6.23636 11.4056C6.01091 11.6647 5.71127 11.8482 5.37805 11.9313C5.02224 11.984 4.66244 12.0049 4.30293 11.9937L4.74545 12.9767C4.88238 13.2539 5.09387 13.4875 5.35618 13.6512C5.61849 13.8148 5.92123 13.9022 6.23042 13.9033C6.27794 13.9033 6.32248 13.9033 6.37 13.9033C5.98449 14.1841 5.52485 14.3453 5.04838 14.3666L4 14.334L4.31778 15.3319C4.4318 15.7157 4.65513 16.058 4.96051 16.3169C5.26589 16.5759 5.64008 16.7403 6.03737 16.7901C5.99608 17.0488 5.89372 17.2939 5.73877 17.5052C5.58382 17.7164 5.38075 17.8877 5.14639 18.0048L4.3653 18.3255L4.79297 19.068C4.96578 19.3374 5.20409 19.5585 5.48562 19.7107C5.76714 19.8629 6.08266 19.9412 6.40267 19.9382C6.57236 19.9379 6.74156 19.92 6.90756 19.8848C6.94568 20.0712 6.99326 20.2556 7.05012 20.4372C7.19717 20.827 7.20764 21.2553 7.07982 21.6519L6.69373 22.4597L7.555 22.6854C7.74918 22.7346 7.94869 22.7595 8.14899 22.7597C8.29428 22.7581 8.43886 22.7392 8.57963 22.7032C8.68095 22.6806 8.78027 22.6498 8.87662 22.6112C8.98702 22.81 9.12279 22.9937 9.28053 23.1576C9.83294 23.7249 10.617 24.013 11.606 24.013H12.3128L10.8516 24.6069L11.9624 25.1445C12.4084 25.3656 12.8654 25.5639 13.3315 25.7385L13.1919 26.1186L13.5751 26.2939C14.2108 26.5449 14.8848 26.6855 15.5679 26.7097C15.5679 26.7097 15.8649 26.7097 16.0252 26.7097C16.1856 26.7097 16.4796 26.7097 16.4796 26.7097C17.1586 26.6853 17.8284 26.5457 18.4606 26.2968L18.8437 26.1216L18.7041 25.7415C19.1756 25.5602 19.6375 25.355 20.0881 25.1267L21.1781 24.598L19.7198 24.0041H20.4297C21.4216 24.0041 22.2116 23.7071 22.7581 23.1487C22.916 22.985 23.0518 22.8013 23.162 22.6022C23.2584 22.6406 23.3577 22.6714 23.459 22.6943C23.5972 22.7264 23.7388 22.7423 23.8807 22.7418C24.081 22.7413 24.2805 22.7164 24.4747 22.6676L25.3419 22.4389L24.9647 21.6459C24.8298 21.2447 24.8382 20.8091 24.9885 20.4134C25.0479 20.2322 25.1013 20.0481 25.1429 19.8669C25.3099 19.9021 25.4801 19.9201 25.6508 19.9204C25.9735 19.9228 26.2913 19.8421 26.5738 19.686C26.8562 19.53 27.0937 19.3038 27.2635 19.0294L27.6852 18.2958L26.9041 17.9751C26.6694 17.8584 26.4661 17.6872 26.3111 17.4759C26.1561 17.2646 26.0539 17.0193 26.0131 16.7604C26.4096 16.7085 26.7828 16.5433 27.0878 16.2846C27.3928 16.026 27.6167 15.6849 27.7327 15.3022L27.703 15.3229Z" fill="white"/>
<path d="M16.0045 8.34379C15.1758 8.34379 14.5551 8.61702 14.4215 8.93778L16.0045 9.56146L17.5904 8.93481C17.4567 8.61405 16.836 8.34082 16.0045 8.34082" fill="white"/>
<path d="M16.0252 24.8918H16.0044C15.4896 24.8873 14.9772 24.8215 14.4779 24.6958L14.0681 25.7828C15.3371 26.1486 16.6837 26.1486 17.9527 25.7828L17.5518 24.6988C17.0525 24.8243 16.5401 24.8901 16.0252 24.8948" fill="white"/>
<path d="M19.0575 23.8169C18.6228 24.034 18.1708 24.2148 17.7062 24.3574L18.0299 25.2484C18.5481 25.1124 19.0515 24.9254 19.5327 24.6901L18.8585 24.4673L19.0575 23.8169Z" fill="white"/>
<path d="M12.9633 23.8169L13.1622 24.4673L12.4881 24.6901C12.9685 24.925 13.4708 25.112 13.9879 25.2484L14.3146 24.3574C13.85 24.2148 13.398 24.034 12.9633 23.8169Z" fill="white"/>
<path d="M16.0044 7.30714C16.5991 7.30096 17.186 7.44283 17.7122 7.71996C17.7629 7.54893 17.8244 7.38128 17.8963 7.21804L17.7181 7.23883L17.531 7.25962L17.4508 7.09033L17.2132 6.58842L16.7796 6.81413L16.6103 6.90026L16.4826 6.77552L16.0044 6.29736L15.5382 6.77552L15.4105 6.89729L15.2412 6.81116L14.8046 6.58545L14.57 7.08736L14.4898 7.25665L14.3027 7.23586L14.1245 7.21507C14.1961 7.37844 14.2576 7.54606 14.3086 7.71699C14.8316 7.44303 15.4141 7.30226 16.0044 7.30714Z" fill="white"/>
<path d="M25.5439 13.1223C25.6231 13.1499 25.7064 13.164 25.7904 13.1638C25.957 13.1623 26.1202 13.1161 26.2629 13.0298C26.4055 12.9436 26.5223 12.8207 26.6011 12.6738C26.0801 12.5881 25.6047 12.3247 25.2558 11.9283C25.1731 11.8359 25.072 11.7617 24.9589 11.7105C24.8459 11.6594 24.7235 11.6324 24.5994 11.6313C24.4054 11.635 24.2161 11.6926 24.0529 11.7977C24.8934 12.2461 25.0657 12.9648 25.5379 13.1252" fill="white"/>
<path d="M6.23337 13.1639C6.31633 13.1641 6.3987 13.15 6.4769 13.1223C6.95803 12.9619 7.13028 12.2313 7.96186 11.7947C7.79868 11.6896 7.60946 11.6321 7.4154 11.6284C7.29085 11.6291 7.16782 11.6559 7.05425 11.707C6.94069 11.7582 6.83911 11.8326 6.75607 11.9254C6.40789 12.3212 5.93368 12.5845 5.41367 12.6709C5.49247 12.8177 5.60931 12.9407 5.75195 13.0269C5.89459 13.1131 6.05779 13.1594 6.22446 13.1609" fill="white"/>
<path d="M25.7696 16.0417H25.8052C26.6962 16.0417 26.9932 15.0972 26.9932 15.0972H26.9754C26.5111 15.0815 26.0558 14.9647 25.6414 14.7549C25.2269 14.5451 24.8632 14.2474 24.5757 13.8825C23.9668 13.1074 23.4649 12.4273 22.4789 12.16L22.3809 12.1421L22.3601 12.0441C22.3334 11.8927 22.4373 11.7471 22.6571 11.5986C24.0203 10.7077 23.0937 9.57018 23.0937 9.57018C23.0937 9.57018 22.7046 10.479 21.8344 10.479H21.7691C21.6694 10.4771 21.5701 10.4672 21.4721 10.4493L21.3117 10.4196C21.3771 10.1923 21.379 9.95149 21.3172 9.72322C21.2555 9.49495 21.1323 9.28795 20.9613 9.12469C20.7903 8.94942 20.5855 8.81063 20.3594 8.7167C20.1333 8.62278 19.8904 8.57567 19.6456 8.57822C19.558 8.5772 19.4705 8.58415 19.3842 8.59901C19.6812 8.99104 19.904 9.64443 19.5565 10.0483C19.2595 10.3958 18.5229 10.4107 18.5229 10.9393C18.5229 11.1591 18.7279 11.4115 19.0932 11.6402C20.195 12.3352 21.288 13.2559 21.7453 14.4884C22.3126 16.0268 21.674 17.0485 20.7593 17.6365C20.9577 17.8038 21.202 17.9073 21.4602 17.9335C21.5463 17.9335 21.6265 17.9335 21.7037 17.9335C22.1815 17.953 22.6514 17.8072 23.0343 17.5207C22.9688 17.9243 22.7977 18.3035 22.5383 18.6196C22.3145 18.8796 22.0347 19.0855 21.7199 19.2219C21.4051 19.3582 21.0634 19.4213 20.7207 19.4066C20.7206 19.5455 20.7503 19.6828 20.8076 19.8094C20.865 19.9359 20.9488 20.0487 21.0533 20.1402C21.2901 20.2991 21.5605 20.4008 21.8433 20.4372C21.8433 20.4372 20.8098 20.648 20.694 22.1746C20.6968 22.5627 20.6029 22.9455 20.4207 23.2883H20.4386C22.8383 23.2883 22.7759 21.2301 22.7759 21.2301C22.8381 21.4193 22.9477 21.5893 23.0943 21.7239C23.241 21.8586 23.4197 21.9534 23.6134 21.9993C23.695 22.0197 23.7788 22.0297 23.8629 22.029C23.999 22.0281 24.1346 22.0112 24.2668 21.9785C24.0499 21.4044 24.0499 20.7708 24.2668 20.1966C24.4357 19.7201 24.5172 19.2171 24.5074 18.7116C24.6425 18.8771 24.815 19.0081 25.0107 19.0938C25.2064 19.1795 25.4197 19.2175 25.633 19.2046C25.8224 19.208 26.0097 19.1635 26.1774 19.0753C26.3451 18.987 26.4878 18.8578 26.5922 18.6997C24.9915 18.0345 25.1518 15.8932 25.1518 15.8932C25.3359 16.0058 25.5479 16.0644 25.7636 16.0624L25.7696 16.0417ZM25.2825 18.3018C24.6321 17.981 24.2193 17.1287 24.1213 16.8168C24.0233 18.4918 23.1946 19.662 22.2413 20.7906C21.9469 21.1294 21.7183 21.5202 21.5671 21.9429C21.6461 21.5167 21.8275 21.1162 22.0958 20.7757C22.9868 19.6947 23.851 18.3493 23.9134 16.796C23.9636 15.8522 23.7298 14.9149 23.2422 14.1053C23.3942 14.5441 23.4168 15.0174 23.3073 15.4686C23.1978 15.9199 22.9607 16.3302 22.6244 16.6505C22.6244 16.6505 24.2609 14.6755 21.9443 12.653C21.0236 11.8838 20.0139 11.4086 19.4941 11.07C21.3681 11.6818 22.2858 11.0076 22.2858 11.0076C22.0299 11.206 21.7346 11.3476 21.4197 11.4229C21.1047 11.4982 20.7773 11.5054 20.4593 11.4442C20.59 11.5066 20.7266 11.5749 20.8722 11.6521C22.4522 12.5104 23.8748 13.9241 24.1153 15.8813V15.8664C24.4836 17.788 25.3033 18.281 25.3033 18.281" fill="white"/>
<path d="M10.1745 20.4193C10.4527 20.3869 10.7199 20.2914 10.9556 20.1401C11.0625 20.0503 11.1488 19.9386 11.2087 19.8126C11.2687 19.6865 11.3009 19.5491 11.3031 19.4095C10.9599 19.4243 10.6178 19.3611 10.3025 19.2248C9.98719 19.0885 9.70684 18.8826 9.48249 18.6225C9.21238 18.3104 9.02995 17.9322 8.95384 17.5266C9.336 17.8144 9.80639 17.9604 10.2844 17.9394C10.3646 17.9394 10.4447 17.9394 10.5309 17.9394C10.7901 17.9136 11.0354 17.8101 11.2347 17.6424C10.32 17.0484 9.67851 16.0356 10.2458 14.4943C10.7002 13.2617 11.7961 12.3381 12.8979 11.6461C13.2632 11.4174 13.4681 11.162 13.4681 10.9452C13.4681 10.4284 12.7346 10.4136 12.4346 10.0542C12.0871 9.6503 12.3039 8.99988 12.6039 8.60488C12.5176 8.58997 12.4301 8.58301 12.3425 8.58409C12.0977 8.58154 11.8549 8.62865 11.6287 8.72257C11.4026 8.8165 11.1978 8.95529 11.0269 9.13056C10.8555 9.29363 10.7322 9.50062 10.6704 9.72895C10.6086 9.95729 10.6107 10.1982 10.6764 10.4254L10.516 10.4581C10.418 10.4758 10.3187 10.4857 10.219 10.4878H10.1567C9.28351 10.4878 8.89741 9.57902 8.89741 9.57902C8.89741 9.57902 7.98565 10.7076 9.34884 11.6015C9.58347 11.753 9.68742 11.8985 9.64584 12.047L9.62505 12.145L9.52704 12.1629C8.54102 12.4302 8.04208 13.1103 7.43027 13.8854C7.14361 14.2469 6.78194 14.5419 6.37021 14.7501C5.95848 14.9583 5.50648 15.0747 5.04542 15.0912H5.01572C5.01572 15.0912 5.31271 16.0356 6.20369 16.0356H6.24527C6.46103 16.0376 6.67301 15.979 6.85707 15.8664C6.85707 15.8664 7.01448 18.0077 5.41369 18.6729C5.51836 18.8309 5.66109 18.9599 5.82874 19.0481C5.99639 19.1363 6.18355 19.181 6.37297 19.1778C6.58624 19.1907 6.7995 19.1527 6.9952 19.067C7.19091 18.9813 7.36344 18.8503 7.49858 18.6848C7.48893 19.1902 7.57042 19.6933 7.73914 20.1698C7.95548 20.7441 7.95548 21.3775 7.73914 21.9517C7.87035 21.9842 8.00492 22.0012 8.14008 22.0022C8.22417 22.003 8.30801 21.993 8.38956 21.9725C8.58328 21.9266 8.76199 21.8318 8.90862 21.6971C9.05525 21.5625 9.16489 21.3925 9.22708 21.2033C9.22708 21.2033 9.16471 23.2615 11.5644 23.2615H11.5822C11.4017 22.9182 11.3089 22.5356 11.312 22.1478C11.1991 20.6212 10.1626 20.4104 10.1626 20.4104L10.1745 20.4193ZM9.77651 20.7816C8.81426 19.653 7.99456 18.4829 7.87873 16.793C7.77775 17.09 7.3679 17.9513 6.71749 18.2779C6.71749 18.2779 7.53422 17.7849 7.90546 15.8634V15.8782C8.14899 13.9211 9.56862 12.5074 11.1516 11.6491C11.2971 11.5689 11.4337 11.5035 11.5644 11.4412C11.2423 11.5064 10.9099 11.5011 10.59 11.4258C10.2701 11.3504 9.9703 11.2067 9.71118 11.0046C9.71118 11.0046 10.6259 11.6788 12.5029 11.067C11.9921 11.4085 10.9853 11.8837 10.0646 12.6529C7.75993 14.6754 9.40824 16.6504 9.40824 16.6504C9.07196 16.3301 8.83491 15.9199 8.72538 15.4686C8.61584 15.0173 8.63845 14.544 8.7905 14.1052C8.30199 14.9145 8.06813 15.852 8.11929 16.7959C8.18166 18.3522 9.037 19.6946 9.93392 20.7757C10.2032 21.1158 10.3857 21.5164 10.4655 21.9428C10.3127 21.5203 10.0832 21.1296 9.78839 20.7905" fill="white"/>
<path d="M14.2225 12.8934C14.2611 12.935 14.2997 12.9825 14.3383 13.027L14.3651 13.0597L14.469 13.2023L14.4928 13.2349C14.5314 13.2943 14.57 13.3597 14.6086 13.422C14.741 13.6871 14.9385 13.9141 15.1827 14.0819C15.4268 14.2497 15.7096 14.3527 16.0045 14.3813C16.2985 14.3525 16.5805 14.2497 16.824 14.0825C17.0676 13.9153 17.2648 13.6891 17.3974 13.425C17.436 13.3597 17.4746 13.2943 17.5162 13.2349L17.534 13.2082C17.5696 13.1577 17.6052 13.1072 17.6409 13.0597L17.6646 13.03C17.7033 12.9825 17.7419 12.935 17.7834 12.8934L17.8013 12.8756C17.9818 12.6859 18.2109 12.5493 18.4636 12.4806L18.3448 12.4182L17.8577 12.1212L17.3587 11.8242L16.0045 12.5667L14.668 11.8391L14.169 12.1361L13.682 12.4331L13.5572 12.5043C13.8081 12.565 14.0379 12.6922 14.2225 12.8726L14.2433 12.8934H14.2225ZM15.4758 12.834H16.5984V13.2231C16.547 13.1733 16.4851 13.1358 16.4173 13.1132C16.3494 13.0906 16.2774 13.0835 16.2064 13.0924V13.6507C16.2051 13.7892 16.2377 13.9258 16.3015 14.0487H15.755C15.823 13.928 15.8597 13.7922 15.8619 13.6537V13.0953C15.7909 13.0864 15.7189 13.0935 15.651 13.1162C15.5832 13.1388 15.5213 13.1763 15.4699 13.226L15.4758 12.834Z" fill="white"/>
<path d="M15.8946 12.0828V9.81084L14.4482 9.3208L14.8165 11.5275L15.8946 12.0828ZM15.5976 10.3692V10.7345L15.5263 10.7018C15.4173 10.6651 15.3164 10.6076 15.2293 10.5325C15.1517 10.4835 15.0852 10.4188 15.0341 10.3426C14.983 10.2664 14.9483 10.1804 14.9323 10.09L15.5976 10.3692Z" fill="white"/>
<path d="M17.1924 11.5274L17.5726 9.32666L16.1262 9.8167V12.0887L17.1924 11.5274ZM16.4381 10.3691L17.0944 10.0929C17.0784 10.1833 17.0438 10.2693 16.9926 10.3455C16.9415 10.4217 16.875 10.4864 16.7974 10.5354C16.7103 10.6105 16.6094 10.668 16.5004 10.7047L16.4321 10.7374L16.4381 10.3691Z" fill="white"/>
<path d="M13.8483 17.3516C13.9768 17.3933 14.1111 17.4144 14.2462 17.4139V17.3724C14.2545 17.346 14.2615 17.3192 14.267 17.2922C14.2884 17.1735 14.3003 17.0533 14.3027 16.9328C14.2217 16.8845 14.1559 16.8146 14.1126 16.7308C14.0946 16.6811 14.0613 16.6383 14.0176 16.6084C13.9739 16.5786 13.922 16.5632 13.8691 16.5645C13.7375 16.5755 13.6109 16.6195 13.5008 16.6922C13.4826 16.8225 13.5048 16.9552 13.5642 17.0726C13.6237 17.1899 13.7176 17.2862 13.8334 17.3486" fill="white"/>
<path d="M17.0469 16.1455C16.7796 16.4425 16.251 16.9474 16.2272 16.9711L16.1945 17.0038L14.5343 16.9771C14.5329 17.1144 14.515 17.251 14.4809 17.384V17.4374L16.4559 17.7938C16.6608 17.6513 17.2281 17.2355 17.4478 17.0751C17.3123 16.8672 17.2623 16.6151 17.3083 16.3712C17.2131 16.3116 17.1287 16.2363 17.0588 16.1485" fill="white"/>
<path d="M17.2726 14.147C17.113 14.3252 16.9175 14.4676 16.6989 14.5648C16.4803 14.6621 16.2437 14.712 16.0045 14.7113C15.9441 14.7144 15.8836 14.7144 15.8233 14.7113C15.7634 14.7064 15.7038 14.6975 15.6451 14.6845C15.6137 14.8203 15.6251 14.9624 15.6778 15.0914C15.7202 15.174 15.7789 15.2471 15.8503 15.3063C15.9218 15.3655 16.0045 15.4096 16.0936 15.4359L16.1619 15.4627V15.5369C16.1701 15.6881 16.2277 15.8325 16.3259 15.9479C16.4241 16.0632 16.5574 16.1432 16.7054 16.1754C16.7915 16.0863 16.8687 16.0061 16.9281 15.9408C16.8752 15.8372 16.8567 15.7194 16.8754 15.6045C16.8941 15.4897 16.949 15.3838 17.0321 15.3023C17.008 15.477 17.0364 15.655 17.1136 15.8136C17.1908 15.9722 17.3133 16.1043 17.4657 16.1933L17.5488 16.2319L17.5251 16.321C17.4709 16.4943 17.4862 16.6819 17.5676 16.8442C17.6491 17.0065 17.7903 17.1309 17.9616 17.1912L18.0715 17.2327L18.024 17.3396C17.9525 17.5006 17.9456 17.6828 18.0048 17.8487C18.0639 18.0145 18.1846 18.1513 18.3418 18.2306H19.5684V17.2505C19.4005 17.2287 19.2442 17.1528 19.1232 17.0345C19.0021 16.9161 18.9228 16.7616 18.8972 16.5942C18.7117 16.5701 18.5432 16.4741 18.4279 16.3269C18.362 16.2341 18.3242 16.1242 18.3189 16.0105C18.3136 15.8968 18.3412 15.7839 18.3982 15.6854C18.401 15.884 18.4735 16.0754 18.6031 16.2259C18.7099 16.3371 18.8535 16.4057 19.0071 16.419H19.0962V16.511C19.1039 16.6414 19.1543 16.7655 19.2397 16.8643C19.325 16.9631 19.4405 17.031 19.5684 17.0575V15.0558C19.58 14.7434 19.6474 14.4356 19.7674 14.147H17.2726Z" fill="white"/>
<path d="M13.9552 15.0647L13.9196 16.3388L14.0651 16.3595L14.4185 15.1389L14.2403 14.7617L13.9552 15.0647Z" fill="white"/>
<path d="M17.8577 20.9065H17.8933C18.1131 20.9688 18.1695 21.7618 18.5556 21.8331C18.5902 21.8367 18.625 21.8367 18.6596 21.8331C18.709 21.8333 18.7577 21.8212 18.8013 21.7979C18.8448 21.7745 18.8819 21.7407 18.9091 21.6994C18.9091 21.6994 18.716 21.4024 18.5705 21.1886C18.3774 20.9183 18.2289 20.5946 17.8666 20.5946H17.8399C17.7719 20.5972 17.7061 20.6188 17.6498 20.657C17.5297 20.5784 17.3894 20.5361 17.2459 20.5352C17.0808 20.5554 16.9178 20.5902 16.7588 20.6392L15.9569 20.559C15.8487 20.5333 15.7548 20.4661 15.6956 20.3719V20.3511C15.6956 20.3303 15.6956 20.3065 15.6956 20.2857C15.7007 20.0709 15.6327 19.8607 15.5027 19.6896C15.3726 19.5185 15.1882 19.3968 14.9798 19.3443C14.9798 19.3443 15.0006 19.2195 14.9531 19.172L14.7749 19.3859L14.1809 19.0889L14.5967 19.573L14.2225 19.9888C14.2053 20.0053 14.194 20.027 14.1902 20.0506C14.1865 20.0742 14.1905 20.0983 14.2017 20.1194L14.3532 20.2531L14.5462 20.1373C14.5618 20.133 14.5782 20.133 14.5937 20.1373C14.6472 20.1373 14.7274 20.1373 14.7987 20.1373C14.8699 20.1373 14.9442 20.1194 14.9531 20.0482C14.9293 20.2917 14.7036 20.7134 14.8521 21.0461L14.962 21.2985L14.2522 21.1975L13.9255 21.7588C13.8765 21.8328 13.8503 21.9196 13.8503 22.0083C13.8503 22.097 13.8765 22.1838 13.9255 22.2578L14.0502 22.4122C14.1367 22.325 14.2088 22.2248 14.2641 22.1152L14.2077 22.0529C14.1871 22.0332 14.1743 22.0067 14.1715 21.9784C14.1688 21.9501 14.1764 21.9217 14.1928 21.8984L14.4007 21.5539L15.2382 21.7499L15.2828 21.6757C15.3056 21.6359 15.3391 21.6034 15.3796 21.5819C15.42 21.5603 15.4657 21.5506 15.5115 21.5539C15.549 21.5511 15.5867 21.5511 15.6243 21.5539C15.8444 21.5984 16.0681 21.6222 16.2925 21.6252C16.4189 21.6378 16.5464 21.6251 16.6678 21.5879C16.7891 21.5506 16.9019 21.4896 16.9994 21.4084C17.2964 21.8598 17.9171 21.9311 17.8696 22.1598L17.7062 22.929C17.8131 22.929 17.9171 22.929 18.0032 22.9052L18.1577 22.1033C18.1755 22.0172 18.1903 21.8984 18.1903 21.8984C18.0745 21.8004 17.9743 21.6852 17.8933 21.5569C17.7834 21.349 17.8428 21.2391 17.7419 20.9629C17.7518 20.9446 17.7663 20.9291 17.784 20.9182C17.8017 20.9072 17.822 20.9012 17.8428 20.9005L17.8577 20.9065ZM14.7066 19.772C14.697 19.7716 14.6875 19.7693 14.6788 19.7651C14.6701 19.761 14.6623 19.7552 14.6559 19.748C14.6495 19.7407 14.6447 19.7323 14.6417 19.7231C14.6386 19.714 14.6375 19.7043 14.6383 19.6947C14.6387 19.6851 14.641 19.6756 14.6451 19.6669C14.6492 19.6582 14.6551 19.6504 14.6623 19.6441C14.6695 19.6377 14.6779 19.6328 14.6871 19.6298C14.6962 19.6268 14.7059 19.6256 14.7155 19.6264C14.7348 19.6264 14.7533 19.6341 14.767 19.6477C14.7806 19.6614 14.7883 19.6799 14.7883 19.6992C14.7883 19.7185 14.7806 19.737 14.767 19.7506C14.7533 19.7643 14.7348 19.772 14.7155 19.772" fill="white"/>
<path d="M13.578 21.6253C13.578 21.6253 13.8572 21.5095 13.875 21.4293L13.8394 21.3373C13.8239 21.3118 13.8181 21.2815 13.823 21.2521C13.8279 21.2227 13.8432 21.196 13.8661 21.1769L14.1631 20.969L14.665 21.064C14.6085 20.9877 14.5792 20.8946 14.5818 20.7997L14.1037 20.6987L13.6523 20.972C13.5738 21.0301 13.5171 21.113 13.4912 21.2072C13.4654 21.3014 13.4719 21.4016 13.5097 21.4917L13.578 21.6253Z" fill="white"/>
<path d="M17.1211 22.9408H17.4181C17.4181 22.9408 17.6765 22.1865 17.6914 22.1627C17.4994 22.0732 17.312 21.9741 17.13 21.8657C17.2073 21.9815 17.3914 22.1093 17.3558 22.2102L17.1211 22.9408Z" fill="white"/>
<path d="M19.5684 18.4712H12.4405V21.1441C12.4405 22.24 13.2335 22.9261 14.4037 22.9261C15.3808 22.9261 15.6392 22.9647 16.0045 23.3241C16.1182 23.2022 16.2563 23.1056 16.4098 23.0407C16.5633 22.9757 16.7288 22.9437 16.8954 22.9469V22.9053L17.1301 22.2192L16.7499 21.7856C16.597 21.8317 16.4372 21.8508 16.2777 21.8421C16.0403 21.8391 15.8037 21.8142 15.5708 21.7678C15.5462 21.765 15.5213 21.765 15.4966 21.7678C15.4639 21.7678 15.4639 21.7678 15.455 21.7856L15.4105 21.8599L15.3303 21.9935L15.1758 21.9579L14.4928 21.7975L14.3977 21.9519V21.9698L14.4809 22.0618L14.4452 22.1806C14.3829 22.3261 14.2932 22.4582 14.1809 22.5697L14.0087 22.7538L13.8542 22.5578L13.7384 22.4123C13.6773 22.3321 13.6376 22.2377 13.623 22.1379C13.6085 22.0382 13.6196 21.9364 13.6552 21.8421L13.4622 21.9222L13.3761 21.7351L13.3167 21.6015C13.2575 21.4653 13.2468 21.3129 13.2862 21.1697C13.3257 21.0266 13.4129 20.9012 13.5335 20.8145L14.0829 20.5175L14.6056 20.6214C14.6056 20.5709 14.6383 20.3927 14.6531 20.3452H14.6234L14.3264 20.4581L14.0294 20.2561C14.0149 20.2418 14.0034 20.2246 13.9955 20.2058C13.9876 20.1869 13.9835 20.1667 13.9835 20.1462C13.9835 20.1258 13.9876 20.1055 13.9955 20.0867C14.0034 20.0678 14.0149 20.0507 14.0294 20.0363L14.3116 19.6087L13.5958 18.7177L14.6947 19.1691L14.769 19.08L14.9175 18.9018L15.0867 19.0622C15.1309 19.105 15.1619 19.1597 15.1758 19.2196C15.4728 19.3384 16.0193 19.6859 16.0668 20.2502L15.8975 20.3185C15.9183 20.3467 15.9459 20.3691 15.9777 20.3838L16.7618 20.461L16.8331 20.4403C16.9662 20.3904 17.1067 20.3633 17.2489 20.3601C17.3908 20.361 17.5308 20.3935 17.6587 20.4551C17.7151 20.4348 17.7741 20.4228 17.8339 20.4195H17.8725C18.0433 20.4346 18.2069 20.4949 18.3468 20.594C18.4866 20.6932 18.5976 20.8277 18.6685 20.9838L18.7546 21.1085C18.9001 21.3164 19.0932 21.6163 19.0991 21.6312L19.1852 21.7648L19.0783 21.8866C19.0298 21.95 18.9673 22.0015 18.8957 22.037C18.8242 22.0726 18.7454 22.0912 18.6655 22.0915C18.6181 22.096 18.5704 22.096 18.523 22.0915C18.4721 22.0712 18.4242 22.0443 18.3804 22.0113C18.3804 22.0529 18.3804 22.1034 18.3566 22.145L18.22 22.8607C18.6118 22.7832 18.963 22.5682 19.2102 22.2545C19.4575 21.9408 19.5845 21.5491 19.5684 21.1501V18.4712Z" fill="#FCE527"/>
<path d="M12.4405 18.254H17.9913C17.8804 18.1375 17.803 17.9932 17.7675 17.8363C17.7319 17.6795 17.7395 17.5159 17.7894 17.363C17.7142 17.327 17.6443 17.2811 17.5815 17.2264C17.3647 17.3868 16.6905 17.8679 16.5301 17.9897L16.4945 18.0134L14.3205 17.6214H14.2759C14.2057 17.6255 14.1353 17.6255 14.0651 17.6214C14.0549 17.6683 14.0291 17.7103 13.9919 17.7406C13.9546 17.7708 13.9081 17.7874 13.8602 17.7877H13.8245C13.7684 17.7782 13.7183 17.7471 13.6849 17.7009C13.6516 17.6548 13.6377 17.5974 13.6463 17.5412V17.4937C13.5093 17.3942 13.4043 17.2569 13.3442 17.0987C13.2841 16.9404 13.2714 16.768 13.3078 16.6027L13.3315 16.576L13.3642 16.5522C13.3642 16.5522 13.4058 16.5225 13.4622 16.4928L13.3048 16.469C13.2766 16.464 13.2515 16.4481 13.2349 16.4248C13.2183 16.4015 13.2114 16.3726 13.2157 16.3443C13.2178 16.3302 13.2228 16.3166 13.2303 16.3045C13.2378 16.2923 13.2476 16.2817 13.2592 16.2734C13.2709 16.2651 13.284 16.2592 13.298 16.2561C13.3119 16.253 13.3264 16.2527 13.3404 16.2552L13.7176 16.3146L13.7532 14.99L14.3146 14.396L14.665 15.1326L14.2819 16.3948L14.6145 16.4483C14.6427 16.4533 14.6678 16.4692 14.6844 16.4925C14.7011 16.5158 14.7079 16.5447 14.7036 16.573C14.6994 16.5982 14.6863 16.621 14.6666 16.6373C14.647 16.6537 14.6222 16.6625 14.5967 16.6621H14.5789L14.3086 16.6175V16.6383C14.3387 16.6914 14.3843 16.7339 14.4393 16.7601L16.0965 16.7868L16.5212 16.3681C16.3626 16.3133 16.2227 16.2148 16.1176 16.0839C16.0126 15.9531 15.9466 15.7953 15.9272 15.6286C15.7209 15.5501 15.5521 15.3962 15.455 15.1979C15.3744 15.0102 15.3608 14.8005 15.4164 14.6039C15.1549 14.5015 14.9187 14.3434 14.7244 14.1406H12.2505C12.367 14.432 12.4314 14.7417 12.4405 15.0554V18.254Z" fill="#FCE527"/>
<path d="M14.7303 19.6321C14.7207 19.6313 14.7111 19.6324 14.7019 19.6355C14.6928 19.6385 14.6843 19.6433 14.6771 19.6497C14.6699 19.6561 14.6641 19.6639 14.6599 19.6726C14.6558 19.6813 14.6535 19.6908 14.6531 19.7004C14.6523 19.71 14.6535 19.7197 14.6565 19.7288C14.6595 19.738 14.6644 19.7464 14.6708 19.7536C14.6772 19.7608 14.6849 19.7667 14.6936 19.7708C14.7024 19.7749 14.7118 19.7772 14.7214 19.7776C14.7407 19.7776 14.7592 19.7699 14.7729 19.7563C14.7865 19.7427 14.7942 19.7241 14.7942 19.7049C14.7942 19.6856 14.7865 19.667 14.7729 19.6534C14.7592 19.6398 14.7407 19.6321 14.7214 19.6321" fill="#222220"/>
<path d="M19.5684 24.4941L19.1585 24.3367L19.2714 23.912L19.3961 23.4487C18.8359 23.7357 18.249 23.9675 17.6439 24.1407C17.3469 24.2239 17.133 24.2625 17.133 24.2625V24.5773C16.7687 24.6365 16.4003 24.6683 16.0312 24.6723H16.0045C15.6353 24.6683 15.267 24.6366 14.9026 24.5773V24.2625C14.9026 24.2625 14.6828 24.2239 14.3918 24.1407C13.7866 23.9676 13.1997 23.7359 12.6395 23.4487L12.7613 23.912L12.8771 24.3367L12.4643 24.4941L12.0069 24.6634C12.6219 24.9869 13.2638 25.2562 13.9255 25.4683L13.7681 25.896C14.4816 26.1681 15.2411 26.2992 16.0045 26.282H16.0223C16.7887 26.3004 17.5513 26.1693 18.2676 25.896L18.1101 25.4683C18.7699 25.2573 19.4099 24.989 20.0228 24.6664L19.5684 24.4941ZM12.491 24.6931L13.1652 24.4704L12.9662 23.82C13.401 24.0371 13.853 24.2179 14.3175 24.3605L13.9909 25.2515C13.4739 25.1149 12.9715 24.9279 12.491 24.6931ZM16.0045 26.0593C15.3497 26.0523 14.6987 25.9594 14.0681 25.7831L14.469 24.6991C14.9713 24.8244 15.4868 24.8892 16.0045 24.8921H16.0371C16.5519 24.8873 17.0644 24.8215 17.5637 24.6961L17.9527 25.7831C17.3201 25.959 16.667 26.0509 16.0104 26.0563L16.0045 26.0593ZM18.03 25.2515L17.7033 24.3605C18.1678 24.2179 18.6198 24.0371 19.0546 23.82L18.8556 24.4704L19.5298 24.6931C19.0485 24.9283 18.5451 25.1153 18.027 25.2515" fill="#222220"/>
<path d="M16.0045 7.57157C16.6766 7.55133 17.3368 7.75159 17.8844 8.1418C17.9735 7.70144 18.1415 7.28084 18.3804 6.90037L17.7062 6.97758L17.3439 6.22916L16.6667 6.57664L16.0045 5.9292L15.3511 6.57664L14.6769 6.22916L14.3264 6.97758L13.6523 6.90037C13.8872 7.28159 14.0512 7.70218 14.1364 8.1418C14.6809 7.75446 15.3364 7.55436 16.0045 7.57157ZM14.2967 7.23894L14.4838 7.25973L14.564 7.09044L14.7987 6.58852L15.2352 6.81424L15.4045 6.90037L15.5382 6.77563L16.0045 6.29747L16.4826 6.77563L16.6163 6.90928L16.7855 6.82315L17.2192 6.59743L17.4567 7.09935L17.5369 7.26864L17.724 7.24785L17.9022 7.22706C17.8303 7.3903 17.7688 7.55794 17.7181 7.72898C17.19 7.45845 16.6052 7.31736 16.0119 7.31736C15.4185 7.31736 14.8337 7.45845 14.3057 7.72898C14.2546 7.55805 14.1931 7.39043 14.1215 7.22706L14.2967 7.23894Z" fill="#222220"/>
<path d="M25.8052 16.3327C26.8863 16.3327 27.2486 15.2338 27.2635 15.1863L27.3852 14.8002H26.9813C26.5594 14.7859 26.1458 14.6796 25.7692 14.4888C25.3927 14.2979 25.0624 14.0272 24.8014 13.6954L24.7212 13.5944C24.1688 12.8935 23.6461 12.2253 22.7076 11.9194C22.7448 11.8866 22.7845 11.8568 22.8264 11.8303C23.0464 11.7055 23.2369 11.5348 23.385 11.3298C23.5331 11.1248 23.6353 10.8903 23.6847 10.6423C23.735 10.1893 23.6072 9.73456 23.3283 9.37414L23.0313 9.0029L22.8353 9.44839C22.8353 9.47511 22.5056 10.182 21.8404 10.182H21.7899H21.6592C21.676 9.95017 21.6421 9.7175 21.5601 9.50007C21.478 9.28264 21.3497 9.08564 21.184 8.92271C20.9856 8.72028 20.7484 8.55992 20.4867 8.45123C20.2249 8.34254 19.9439 8.28774 19.6604 8.29011C19.554 8.28964 19.4478 8.29758 19.3427 8.31387L18.8883 8.40297L19.1674 8.77124C19.3872 9.06823 19.5862 9.58203 19.3516 9.85527C19.2392 9.95309 19.1105 10.0305 18.9714 10.0839C18.6744 10.2235 18.2467 10.4225 18.2467 10.9215C18.2467 11.2452 18.4992 11.5838 18.9536 11.8689C20.299 12.7153 21.1276 13.5974 21.4869 14.5715C22.0423 16.0565 21.3177 16.9267 20.6138 17.3751L20.299 17.5771L20.5752 17.8295C20.8215 18.0395 21.1262 18.169 21.4483 18.2008C21.5434 18.2008 21.6325 18.2008 21.7186 18.2008C21.9942 18.2019 22.2685 18.1618 22.5324 18.082C22.4666 18.1969 22.39 18.3053 22.3037 18.4057C22.1061 18.6355 21.8586 18.817 21.5802 18.9364C21.3017 19.0558 20.9996 19.11 20.6969 19.0947H20.4326L20.4118 19.359C20.4107 19.542 20.4497 19.7231 20.5262 19.8893C20.6026 20.0556 20.7147 20.2031 20.8543 20.3213C20.9284 20.3863 21.0114 20.4403 21.1009 20.4817C20.662 20.9092 20.411 21.4936 20.4029 22.1062C20.4103 22.4529 20.3371 22.7965 20.1891 23.1101L19.8921 23.5556H20.4207C21.2919 23.5556 21.9592 23.317 22.4225 22.8398C22.663 22.587 22.8419 22.2821 22.9452 21.9488C23.1168 22.0935 23.3204 22.1953 23.5392 22.2458C23.6434 22.2699 23.75 22.2819 23.8569 22.2815C24.017 22.281 24.1764 22.2621 24.3321 22.225L24.6677 22.1359L24.5192 21.8211C24.3332 21.319 24.3332 20.7669 24.5192 20.2649C24.6294 19.9369 24.706 19.5985 24.7479 19.2551C25.0154 19.3914 25.312 19.4607 25.6122 19.457C25.8533 19.4607 26.0914 19.4032 26.3043 19.29C26.5172 19.1768 26.698 19.0115 26.8298 18.8096L26.9932 18.5126L26.6962 18.3879C25.7013 17.9751 25.4815 16.8673 25.4399 16.2673C25.5378 16.2872 25.6371 16.2991 25.7369 16.303L25.8052 16.3327ZM26.5923 18.6789C26.4878 18.837 26.3451 18.9662 26.1774 19.0545C26.0097 19.1427 25.8224 19.1872 25.633 19.1838C25.4197 19.1965 25.2065 19.1584 25.0109 19.0727C24.8152 18.987 24.6427 18.8561 24.5074 18.6908C24.5162 19.1964 24.4337 19.6995 24.2638 20.1758C24.0469 20.75 24.0469 21.3835 24.2638 21.9577C24.1316 21.9904 23.9961 22.0074 23.8599 22.0082C23.7758 22.0088 23.692 21.9989 23.6104 21.9785C23.4167 21.9326 23.238 21.8378 23.0914 21.7031C22.9447 21.5685 22.8351 21.3984 22.7729 21.2093C22.7729 21.2093 22.8353 23.2675 20.4356 23.2675H20.4178C20.5998 22.9246 20.6937 22.5419 20.691 22.1537C20.8039 20.6272 21.8374 20.4163 21.8374 20.4163C21.5584 20.3854 21.2901 20.291 21.0533 20.1401C20.9465 20.0504 20.8601 19.9387 20.8002 19.8126C20.7402 19.6866 20.708 19.5491 20.7059 19.4095C21.0513 19.4264 21.3961 19.364 21.7137 19.2271C22.0313 19.0902 22.3134 18.8823 22.5383 18.6195C22.8101 18.3082 22.9936 17.9298 23.0699 17.5236C22.6878 17.8115 22.2174 17.9574 21.7394 17.9364C21.6622 17.9364 21.579 17.9364 21.4959 17.9364C21.2376 17.9103 20.9934 17.8068 20.7949 17.6395C21.7097 17.0455 22.3482 16.0327 21.781 14.4913C21.3266 13.2588 20.2307 12.3352 19.1288 11.6432C18.7635 11.4145 18.5586 11.1591 18.5586 10.9423C18.5586 10.4255 19.2922 10.4106 19.5921 10.0513C19.9396 9.64737 19.7228 8.99696 19.4199 8.60196C19.5062 8.58709 19.5937 8.58014 19.6812 8.58117C19.9261 8.57861 20.1689 8.62572 20.395 8.71964C20.6212 8.81357 20.8259 8.95236 20.9969 9.12763C21.168 9.29089 21.2911 9.49789 21.3529 9.72616C21.4147 9.95443 21.4128 10.1953 21.3474 10.4225L21.5077 10.4552C21.6058 10.473 21.7051 10.4829 21.8047 10.4849H21.8701C22.7403 10.4849 23.1293 9.57609 23.1293 9.57609C23.1293 9.57609 24.053 10.7136 22.6927 11.6046C22.4581 11.756 22.3542 11.9015 22.3957 12.05L22.4165 12.1481L22.5145 12.1659C23.5006 12.4332 23.9995 13.1133 24.6113 13.8884C24.8961 14.2466 25.2546 14.5394 25.6625 14.747C26.0704 14.9545 26.5181 15.0719 26.9754 15.0913H26.9932C26.9932 15.0913 26.6962 16.0357 25.8052 16.0357H25.7636C25.5479 16.0377 25.3359 15.979 25.1518 15.8664C25.1518 15.8664 24.9944 18.0077 26.5923 18.673" fill="#222220"/>
<path d="M23.9134 12.0501C24.2454 12.2393 24.5331 12.4976 24.7568 12.8074C24.9253 13.0692 25.167 13.2757 25.4518 13.4014C25.5599 13.4376 25.6733 13.4557 25.7874 13.4548C26.0099 13.4542 26.2279 13.3924 26.4175 13.2761C26.6071 13.1598 26.7611 12.9935 26.8625 12.7955L27.0348 12.4124L26.616 12.3886C26.1669 12.3072 25.7592 12.0745 25.4607 11.7293C25.3505 11.6097 25.217 11.514 25.0683 11.4481C24.9197 11.3822 24.7591 11.3475 24.5965 11.3462C24.3433 11.3506 24.0964 11.4257 23.8837 11.563L23.5005 11.8333L23.9134 12.0501ZM24.5965 11.6283C24.7205 11.6294 24.843 11.6564 24.956 11.7075C25.069 11.7587 25.1701 11.8329 25.2528 11.9253C25.6017 12.3217 26.0771 12.5851 26.5982 12.6708C26.5191 12.8174 26.4022 12.9402 26.2597 13.0264C26.1171 13.1126 25.954 13.159 25.7874 13.1608C25.7035 13.161 25.6201 13.1469 25.5409 13.1192C25.0627 12.9589 24.8905 12.2283 24.0559 11.7917C24.219 11.6864 24.4083 11.6288 24.6024 11.6254" fill="#222220"/>
<path d="M24.1034 15.8663C23.8599 13.9091 22.4403 12.4955 20.8603 11.6372C20.7148 11.5599 20.5781 11.4916 20.4475 11.4293C20.77 11.4947 21.103 11.4896 21.4234 11.4142C21.7438 11.3389 22.0441 11.1951 22.3037 10.9927C22.3037 10.9927 21.3889 11.6668 19.5119 11.055C20.0317 11.3906 21.0385 11.8658 21.9621 12.638C24.2638 14.6605 22.6185 16.6355 22.6185 16.6355C22.9548 16.3153 23.1918 15.905 23.3013 15.4537C23.4109 15.0024 23.3883 14.5291 23.2362 14.0903C23.7237 14.9001 23.9575 15.8372 23.9074 16.7811C23.8451 18.3373 22.9897 19.6797 22.0898 20.7608C21.8216 21.1012 21.6402 21.5018 21.5612 21.928C21.7158 21.5101 21.9464 21.1244 22.2413 20.7905C23.2036 19.6619 24.0233 18.4917 24.1361 16.8019C24.2371 17.0989 24.6469 17.9601 25.2974 18.2868C25.2974 18.2868 24.4777 17.7938 24.1094 15.8723" fill="#222220"/>
<path d="M11.8466 23.1103C11.7025 22.8067 11.6264 22.4752 11.6238 22.1392C11.6157 21.5265 11.3647 20.9422 10.9259 20.5146C11.0154 20.4734 11.0984 20.4194 11.1724 20.3542C11.3124 20.2363 11.4246 20.0889 11.5011 19.9225C11.5776 19.7562 11.6165 19.575 11.6149 19.392L11.5971 19.1276H11.3298C11.0276 19.1425 10.7261 19.0881 10.4482 18.9687C10.1703 18.8493 9.92325 18.668 9.72602 18.4386C9.63017 18.3353 9.54462 18.2229 9.47061 18.103C9.73345 18.1828 10.0067 18.2228 10.2814 18.2218C10.3675 18.2218 10.4566 18.2218 10.5517 18.2218C10.874 18.1889 11.1786 18.0583 11.4248 17.8476L11.701 17.5952L11.3862 17.3932C10.6823 16.9418 9.96065 16.0864 10.5131 14.5896C10.8724 13.6155 11.701 12.7334 13.0464 11.887C13.5008 11.59 13.7503 11.2603 13.7503 10.9395C13.7503 10.4406 13.3345 10.2446 13.0286 10.102C12.8894 10.0487 12.7607 9.97132 12.6484 9.87334C12.4108 9.60011 12.6098 9.07443 12.8296 8.78932L13.1117 8.42105L12.6544 8.33195C12.5502 8.31573 12.445 8.30778 12.3396 8.30819C12.0561 8.30565 11.775 8.36037 11.5132 8.46907C11.2514 8.57777 11.0143 8.73822 10.816 8.94078C10.6561 9.10398 10.5329 9.29939 10.4546 9.51397C10.3762 9.72856 10.3445 9.95738 10.3616 10.1852H10.2309H10.1834C9.51516 10.1852 9.20034 9.47834 9.18846 9.45161L9.00136 9.00909L8.70437 9.38033C8.42734 9.74162 8.3007 10.196 8.35094 10.6485C8.40014 10.8966 8.50229 11.1312 8.65041 11.3362C8.79854 11.5412 8.98916 11.7118 9.20925 11.8365C9.25126 11.8628 9.291 11.8926 9.32805 11.9256C8.38955 12.2226 7.86685 12.8997 7.31444 13.6006L7.23425 13.7016C6.97294 14.0337 6.64215 14.3047 6.26508 14.4956C5.888 14.6864 5.47375 14.7925 5.05135 14.8064L4.62962 14.7945L4.75436 15.1806C4.75436 15.2281 5.12857 16.327 6.20963 16.327H6.26308C6.36287 16.323 6.46217 16.311 6.56008 16.2914C6.51553 16.8853 6.29575 17.9991 5.30083 18.4119L5.00383 18.5366L5.16718 18.8336C5.29892 19.0365 5.48004 19.2026 5.69354 19.3164C5.90704 19.4302 6.14593 19.4878 6.38782 19.484C6.68699 19.4871 6.98248 19.4178 7.2491 19.2821C7.29083 19.6256 7.36746 19.9639 7.47779 20.2919C7.66384 20.7939 7.66384 21.346 7.47779 21.8481L7.32929 22.1629L7.66786 22.252C7.82356 22.289 7.98301 22.308 8.14305 22.3084C8.25 22.309 8.35665 22.297 8.46083 22.2728C8.67964 22.2225 8.88328 22.1207 9.05482 21.9758C9.15727 22.3088 9.33512 22.6137 9.57455 22.8668C10.0379 23.344 10.7051 23.5825 11.5763 23.5825H12.1049L11.8466 23.1103ZM11.5911 23.2737C9.19143 23.2737 9.2538 21.2155 9.2538 21.2155C9.19162 21.4046 9.08198 21.5747 8.93535 21.7093C8.78872 21.844 8.61001 21.9388 8.41628 21.9847C8.33473 22.0052 8.25089 22.0152 8.16681 22.0144C8.03164 22.0134 7.89706 21.9965 7.76587 21.9639C7.98221 21.3896 7.98221 20.7563 7.76587 20.182C7.59714 19.7054 7.51565 19.2024 7.5253 18.697C7.39016 18.8625 7.21763 18.9935 7.02193 19.0792C6.82623 19.1649 6.61296 19.2029 6.3997 19.19C6.21028 19.1931 6.02312 19.1485 5.85547 19.0603C5.68782 18.9721 5.54508 18.843 5.44041 18.6851C7.03824 18.0199 6.8838 15.8785 6.8838 15.8785C6.69974 15.9911 6.48776 16.0498 6.27199 16.0478H6.20369C5.31271 16.0478 5.01571 15.1034 5.01571 15.1034H5.03353C5.49734 15.0875 5.95209 14.9705 6.36605 14.7607C6.78 14.5509 7.14319 14.2533 7.43027 13.8887C8.0391 13.1135 8.54102 12.4334 9.52704 12.1661L9.62504 12.1483L9.64583 12.0503C9.67256 11.8988 9.56862 11.7533 9.34884 11.6048C7.98861 10.7138 8.91226 9.57635 8.91226 9.57635C8.91226 9.57635 9.29835 10.4851 10.1715 10.4851H10.2339C10.3335 10.483 10.4328 10.4731 10.5309 10.4554L10.6912 10.4228C10.6255 10.1955 10.6234 9.95462 10.6852 9.72628C10.747 9.49795 10.8703 9.29096 11.0417 9.12789C11.2127 8.95262 11.4174 8.81383 11.6436 8.7199C11.8697 8.62598 12.1125 8.57887 12.3574 8.58142C12.445 8.58033 12.5324 8.58729 12.6187 8.60221C12.3217 8.99424 12.102 9.64763 12.4494 10.0515C12.7464 10.399 13.483 10.4139 13.483 10.9425C13.483 11.1623 13.2781 11.4147 12.9128 11.6434C11.8109 12.3384 10.718 13.2591 10.2606 14.4916C9.69335 16.03 10.3349 17.0517 11.2496 17.6397C11.0503 17.8074 10.8049 17.9109 10.5457 17.9367C10.4596 17.9367 10.3794 17.9367 10.2992 17.9367C9.82124 17.9577 9.35084 17.8117 8.96869 17.5239C9.04479 17.9295 9.22722 18.3077 9.49734 18.6198C9.72169 18.8799 10.002 19.0858 10.3173 19.2221C10.6326 19.3585 10.9747 19.4216 11.3179 19.4068C11.3143 19.5481 11.2801 19.6868 11.2175 19.8135C11.1549 19.9402 11.0655 20.0517 10.9556 20.1404C10.718 20.2997 10.4464 20.4014 10.1626 20.4374C10.1626 20.4374 11.1961 20.6482 11.312 22.1748C11.3089 22.5626 11.4017 22.9452 11.5822 23.2885L11.5911 23.2737Z" fill="#222220"/>
<path d="M6.23339 13.4491C6.34744 13.4499 6.46084 13.4318 6.56899 13.3956C6.85393 13.2701 7.09563 13.0635 7.26396 12.8016C7.48773 12.4918 7.77535 12.2335 8.10742 12.0443L8.52321 11.8215L8.13712 11.5513C7.92446 11.4138 7.67753 11.3387 7.42433 11.3345C7.26173 11.3358 7.10112 11.3705 6.95246 11.4364C6.8038 11.5023 6.67025 11.598 6.56009 11.7176C6.26156 12.0628 5.85387 12.2955 5.40478 12.3769L4.98602 12.4185L5.15828 12.8016C5.2601 12.9991 5.41424 13.1647 5.60385 13.2805C5.79346 13.3962 6.01124 13.4576 6.23339 13.458V13.4491ZM6.76501 11.9344C6.84804 11.8416 6.94962 11.7672 7.06319 11.716C7.17675 11.6649 7.29978 11.6381 7.42433 11.6374C7.62258 11.6356 7.81726 11.6902 7.98565 11.7948C7.14516 12.2433 6.97291 12.962 6.50069 13.1224C6.42249 13.1501 6.34011 13.1641 6.25715 13.1639C6.09049 13.1625 5.92729 13.1162 5.78465 13.03C5.642 12.9438 5.52516 12.8208 5.44636 12.6739C5.96637 12.5876 6.44059 12.3242 6.78877 11.9285" fill="#222220"/>
<path d="M8.11929 16.7962C8.06813 15.8523 8.30199 14.9148 8.7905 14.1054C8.63845 14.5443 8.61584 15.0175 8.72537 15.4688C8.83491 15.9201 9.07196 16.3304 9.40824 16.6507C9.40824 16.6507 7.75993 14.6757 10.0646 12.6532C10.9853 11.8839 11.9921 11.4088 12.5118 11.0702C10.6378 11.682 9.72008 11.0078 9.72008 11.0078C9.97921 11.21 10.279 11.3537 10.5989 11.429C10.9188 11.5044 11.2512 11.5096 11.5733 11.4444C11.4426 11.5068 11.306 11.5751 11.1605 11.6523C9.57753 12.5106 8.1579 13.9243 7.91437 15.8815V15.8666C7.5461 17.7882 6.72639 18.2812 6.72639 18.2812C7.37681 17.9604 7.78666 17.108 7.88764 16.7962C7.99752 18.4861 8.8202 19.6562 9.78542 20.7848C10.0803 21.1239 10.3098 21.5146 10.4626 21.9372C10.3827 21.5107 10.2003 21.1101 9.93095 20.77C9.03997 19.6889 8.17869 18.3435 8.11632 16.7903" fill="#222220"/>
<path d="M15.4699 12.8374V13.2265C15.5213 13.1768 15.5832 13.1392 15.651 13.1166C15.7189 13.094 15.7909 13.0869 15.8619 13.0958V13.6541C15.8597 13.7927 15.823 13.9284 15.755 14.0491H16.3014C16.234 13.9282 16.1973 13.7926 16.1945 13.6541V13.0958C16.2655 13.0869 16.3375 13.094 16.4054 13.1166C16.4732 13.1392 16.5351 13.1768 16.5866 13.2265V12.8374H15.4699Z" fill="#222220"/>
<path d="M15.2293 10.5353C15.3164 10.6104 15.4173 10.6678 15.5263 10.7046L15.5976 10.7372V10.369L14.9412 10.0928C14.9572 10.1831 14.9919 10.2692 15.043 10.3454C15.0941 10.4216 15.1606 10.4863 15.2382 10.5353" fill="#222220"/>
<path d="M16.7915 10.5353C16.8692 10.4864 16.9357 10.4218 16.9869 10.3455C17.0381 10.2693 17.0727 10.1832 17.0885 10.0928L16.4321 10.369V10.7343L16.5004 10.7016C16.6096 10.6653 16.7105 10.6078 16.7974 10.5323" fill="#222220"/>
<path d="M17.9765 9.04749C17.9765 8.49211 17.0439 7.99316 16.0133 7.99316C14.9828 7.99316 14.0502 8.49211 14.0502 9.04749L14.071 9.18411L14.4838 11.56L14.071 11.8006L12.9929 12.4184C12.9929 12.4184 12.7524 12.5431 12.6395 12.6173C12.2326 12.9143 12.1465 13.3123 12.3811 13.4816C12.4095 13.2857 12.5091 13.1071 12.6609 12.98C12.8126 12.8529 13.0059 12.7861 13.2038 12.7926C13.3723 12.7971 13.5374 12.8415 13.6856 12.922C13.8337 13.0025 13.9607 13.1169 14.0562 13.2559C14.1143 13.3277 14.1679 13.4031 14.2165 13.4816C14.2789 13.5826 14.3413 13.6717 14.4007 13.7578H11.6565C11.8878 14.1568 12.0231 14.6042 12.0515 15.0646V21.15C12.0515 22.6349 13.186 23.3299 14.4274 23.3299C15.3748 23.3299 15.5025 23.2853 16.0282 23.808C16.5479 23.2853 16.6756 23.3299 17.626 23.3299C18.8526 23.3299 19.9871 22.626 19.9871 21.15V15.0557C20.0155 14.5953 20.1508 14.1479 20.3821 13.7489H17.6112C17.6735 13.6628 17.7359 13.5737 17.7953 13.4727C17.8447 13.3946 17.8982 13.3193 17.9557 13.247C18.0513 13.1082 18.1784 12.9939 18.3265 12.9134C18.4746 12.8329 18.6396 12.7884 18.8081 12.7837C19.0058 12.7779 19.1987 12.8448 19.3503 12.9718C19.502 13.0988 19.6017 13.277 19.6307 13.4727C19.8683 13.3034 19.7822 12.8787 19.3723 12.6084C19.2714 12.5312 19.0249 12.4184 19.0249 12.4184L17.9557 11.7947L17.5429 11.5541L17.9557 9.17817L17.9765 9.04749ZM14.4482 9.32072L15.8946 9.81076V12.0828L14.8165 11.5274L14.4482 9.32072ZM14.7452 14.1469C14.9395 14.3497 15.1756 14.5078 15.4372 14.6102C15.3816 14.8067 15.3952 15.0164 15.4758 15.2042C15.5726 15.4026 15.7415 15.5566 15.948 15.6348C15.9673 15.8015 16.0333 15.9593 16.1384 16.0902C16.2435 16.221 16.3834 16.3195 16.542 16.3743L16.1084 16.7842L14.4512 16.7574C14.3961 16.7312 14.3505 16.6887 14.3205 16.6357V16.6149L14.5908 16.6594H14.6086C14.6341 16.6598 14.6589 16.651 14.6785 16.6346C14.6981 16.6183 14.7112 16.5955 14.7155 16.5703C14.7198 16.542 14.7129 16.5131 14.6963 16.4899C14.6796 16.4666 14.6546 16.4507 14.6264 16.4456L14.2938 16.3921L14.662 15.118L14.3116 14.3815L13.7503 14.9755L13.7146 16.3001L13.3315 16.2407C13.3174 16.2381 13.303 16.2384 13.2891 16.2415C13.2751 16.2447 13.2619 16.2506 13.2503 16.2589C13.2387 16.2672 13.2288 16.2777 13.2214 16.2899C13.2139 16.3021 13.2089 16.3156 13.2068 16.3298C13.2024 16.3581 13.2093 16.3869 13.226 16.4102C13.2426 16.4335 13.2677 16.4494 13.2959 16.4545L13.4533 16.4783C13.3968 16.5109 13.3582 16.5347 13.3553 16.5406L13.3315 16.5763V16.6149C13.2951 16.7802 13.3078 16.9526 13.368 17.1108C13.4281 17.2691 13.5331 17.4064 13.6701 17.5058V17.5534C13.6615 17.6096 13.6754 17.667 13.7087 17.7131C13.742 17.7592 13.7922 17.7904 13.8483 17.7999H13.8839C13.9319 17.7996 13.9784 17.783 14.0156 17.7527C14.0529 17.7225 14.0787 17.6805 14.0888 17.6336C14.1591 17.6377 14.2295 17.6377 14.2997 17.6336H14.3443L16.5182 18.0256L16.5539 18.0018C16.7261 17.8801 17.3884 17.4078 17.6052 17.2386C17.6681 17.2932 17.738 17.3392 17.8131 17.3752C17.7632 17.5281 17.7557 17.6916 17.7912 17.8485C17.8268 18.0054 17.9041 18.1497 18.0151 18.2661H12.4405V15.0557C12.4282 14.7434 12.3608 14.4357 12.2415 14.1469H14.7452ZM17.4181 17.0722C17.1984 17.2356 16.6311 17.6484 16.4262 17.791L14.4512 17.4346V17.3811C14.4852 17.2481 14.5031 17.1115 14.5046 16.9742L16.1648 17.001L16.1975 16.9683C16.2212 16.9445 16.7499 16.4337 17.0172 16.1427C17.0873 16.2304 17.1716 16.3057 17.2667 16.3654C17.2207 16.6092 17.2707 16.8614 17.4062 17.0693L17.4181 17.0722ZM14.1274 16.7307C14.1707 16.8144 14.2366 16.8844 14.3175 16.9327C14.315 17.0532 14.3031 17.1733 14.2819 17.292C14.2819 17.3187 14.2819 17.3455 14.2611 17.3722V17.4138C14.126 17.4142 13.9916 17.3932 13.8631 17.3514C13.7473 17.289 13.6534 17.1927 13.5939 17.0754C13.5345 16.958 13.5123 16.8253 13.5305 16.6951C13.6371 16.6277 13.7583 16.587 13.8839 16.5763C13.9364 16.5751 13.9879 16.5906 14.0311 16.6205C14.0743 16.6503 14.107 16.6931 14.1245 16.7426L14.1274 16.7307ZM13.9255 16.3357L13.9582 15.0616L14.2552 14.7646L14.4333 15.1388L14.0799 16.3595L13.9255 16.3357ZM17.4181 22.9349H17.1211L17.3558 22.2191C17.3914 22.1181 17.2073 21.9875 17.13 21.8716C17.312 21.9802 17.4993 22.0793 17.6914 22.1686C17.6914 22.1924 17.4181 22.9468 17.4181 22.9468V22.9349ZM18.1576 22.1152L18.0032 22.9171C17.9052 22.9171 17.8012 22.9378 17.7062 22.9408L17.8696 22.1716C17.9171 21.9429 17.3023 21.8746 16.9994 21.4202C16.9019 21.5016 16.7892 21.5627 16.6678 21.5999C16.5464 21.6372 16.4188 21.6498 16.2925 21.637C16.068 21.634 15.8443 21.6102 15.6243 21.5657C15.5867 21.5628 15.549 21.5628 15.5114 21.5657C15.4657 21.5625 15.42 21.5722 15.3796 21.5937C15.3391 21.6152 15.3055 21.6478 15.2827 21.6875L15.2382 21.7618L14.4007 21.5657L14.1928 21.9103C14.1769 21.9337 14.1697 21.962 14.1724 21.9901C14.1751 22.0183 14.1876 22.0447 14.2076 22.0647L14.2641 22.1271C14.2088 22.2367 14.1366 22.3369 14.0502 22.4241L13.9255 22.2577C13.8764 22.1838 13.8503 22.097 13.8503 22.0083C13.8503 21.9195 13.8764 21.8327 13.9255 21.7588L14.2581 21.1975L14.9679 21.2984L14.858 21.046C14.7096 20.7134 14.9353 20.2916 14.959 20.0481C14.959 20.1224 14.8818 20.1372 14.8046 20.1372C14.7274 20.1372 14.6531 20.1372 14.5997 20.1372C14.5841 20.1327 14.5677 20.1327 14.5521 20.1372L14.3591 20.253L14.2225 20.1194C14.2113 20.0983 14.2073 20.0741 14.211 20.0506C14.2148 20.027 14.2261 20.0053 14.2433 19.9887L14.5937 19.5937L14.1779 19.1096L14.7719 19.4066L14.9501 19.1928C14.9976 19.2403 14.9768 19.365 14.9768 19.365C15.1852 19.4175 15.3696 19.5393 15.4997 19.7104C15.6297 19.8814 15.6978 20.0917 15.6926 20.3065C15.6926 20.3273 15.6926 20.3481 15.6926 20.3718V20.3926C15.7518 20.4868 15.8457 20.554 15.954 20.5797L16.7558 20.6599C16.9148 20.6109 17.0778 20.5761 17.2429 20.556C17.3865 20.5566 17.5268 20.5989 17.6468 20.6777C17.703 20.6394 17.7689 20.6177 17.8369 20.6154H17.8636C18.223 20.6154 18.3744 20.9421 18.5675 21.2094C18.713 21.4143 18.9061 21.7202 18.9061 21.7202C18.8789 21.7615 18.8418 21.7953 18.7983 21.8186C18.7547 21.842 18.706 21.8541 18.6566 21.8538C18.622 21.8573 18.5872 21.8573 18.5526 21.8538C18.1665 21.7825 18.1101 20.9896 17.8903 20.9272H17.8547C17.8339 20.9278 17.8136 20.9339 17.7959 20.9449C17.7781 20.9558 17.7636 20.9712 17.7537 20.9896C17.8547 21.2598 17.7953 21.3697 17.9052 21.5836C17.9862 21.7119 18.0863 21.8271 18.2022 21.9251C18.2022 21.9251 18.1873 22.0409 18.1695 22.13L18.1576 22.1152ZM13.8423 21.346L13.878 21.438C13.8542 21.5182 13.581 21.6341 13.581 21.6341L13.5216 21.5034C13.4838 21.4133 13.4772 21.3131 13.5031 21.2189C13.5289 21.1247 13.5856 21.0418 13.6641 20.9836L14.1156 20.7104L14.5937 20.8114C14.5911 20.9063 14.6204 20.9994 14.6769 21.0757L14.175 20.9807L13.878 21.1886C13.8551 21.2077 13.8398 21.2344 13.8349 21.2638C13.83 21.2932 13.8358 21.3234 13.8512 21.3489L13.8423 21.346ZM18.2408 22.8636L18.3804 22.1449C18.3804 22.1033 18.3952 22.0528 18.4012 22.0112C18.4413 22.0285 18.4831 22.0414 18.5259 22.0498C18.5733 22.0543 18.6211 22.0543 18.6685 22.0498C18.7484 22.0495 18.8271 22.0309 18.8987 21.9953C18.9702 21.9598 19.0327 21.9084 19.0813 21.8449L19.1882 21.7231L19.1021 21.5895C19.1021 21.5895 18.9031 21.2747 18.7576 21.0668L18.6744 20.9421C18.6036 20.786 18.4926 20.6515 18.3527 20.5523C18.2129 20.4532 18.0492 20.3929 17.8785 20.3778H17.8399C17.78 20.381 17.721 20.393 17.6646 20.4134C17.5368 20.3517 17.3968 20.3192 17.2548 20.3184C17.1127 20.3217 16.9721 20.3488 16.839 20.3986L16.7677 20.4193L15.9837 20.3421C15.9516 20.3265 15.924 20.303 15.9035 20.2738L16.0727 20.2055C16.0252 19.6412 15.4788 19.2937 15.1818 19.1749C15.1683 19.114 15.1374 19.0582 15.0927 19.0146L14.9234 18.8542L14.7749 19.0324L14.7006 19.1215L13.6018 18.6701L14.3145 19.561L14.0324 19.9887C14.0179 20.0031 14.0063 20.0202 13.9984 20.039C13.9905 20.0579 13.9865 20.0782 13.9865 20.0986C13.9865 20.119 13.9905 20.1393 13.9984 20.1581C14.0063 20.177 14.0179 20.1941 14.0324 20.2085L14.3294 20.4104L14.6264 20.2976H14.6561C14.6561 20.3421 14.6234 20.5233 14.6086 20.5738L14.0859 20.4698L13.5364 20.7668C13.4088 20.8569 13.3179 20.9899 13.2803 21.1415C13.2426 21.2931 13.2608 21.4532 13.3315 21.5925L13.3939 21.7261L13.48 21.9132L13.673 21.833C13.6374 21.9273 13.6263 22.0292 13.6408 22.1289C13.6554 22.2287 13.6951 22.3231 13.7562 22.4033L13.872 22.5488L14.0265 22.7448L14.1987 22.5607C14.3112 22.4493 14.401 22.3172 14.463 22.1716L14.4987 22.0528L14.4155 21.9607V21.9429L14.5106 21.7885L15.1936 21.9489L15.3481 21.9845L15.4312 21.8479L15.4758 21.7736C15.4758 21.7588 15.4758 21.7558 15.5174 21.7558H15.5916C15.8245 21.8022 16.0611 21.8271 16.2985 21.8301C16.458 21.8388 16.6177 21.8197 16.7707 21.7736L17.13 22.2191L16.8954 22.9111V22.9527C16.7288 22.9495 16.5633 22.9815 16.4098 23.0465C16.2563 23.1115 16.1182 23.208 16.0044 23.3299C15.6391 22.9675 15.3837 22.9319 14.4036 22.9319C13.2335 22.9319 12.4405 22.2459 12.4405 21.15V18.477H19.5684V21.15C19.5847 21.5482 19.4585 21.9392 19.2125 22.2527C18.9664 22.5663 18.6166 22.7818 18.2259 22.8606L18.2408 22.8636ZM19.7673 14.1469C19.6473 14.4355 19.5799 14.7433 19.5684 15.0557V17.0544C19.442 17.0276 19.3278 16.9603 19.2432 16.8628C19.1585 16.7652 19.1079 16.6428 19.0991 16.5139V16.4218H19.01C18.8564 16.4086 18.7129 16.34 18.6061 16.2288C18.4747 16.0779 18.4011 15.8853 18.3982 15.6853C18.3359 15.7871 18.3057 15.9052 18.3115 16.0244C18.3173 16.1436 18.3589 16.2583 18.4309 16.3535C18.5462 16.5007 18.7147 16.5967 18.9001 16.6208C18.9256 16.7877 19.0045 16.9419 19.1249 17.0603C19.2454 17.1786 19.401 17.2547 19.5684 17.2772V18.2572H18.3418C18.1846 18.1779 18.0639 18.0411 18.0048 17.8753C17.9456 17.7094 17.9525 17.5272 18.024 17.3663L18.0715 17.2593L17.9616 17.2178C17.7903 17.1575 17.649 17.0332 17.5676 16.8708C17.4862 16.7085 17.4709 16.5209 17.525 16.3476L17.5488 16.2585L17.4656 16.2199C17.3133 16.131 17.1907 15.9988 17.1136 15.8402C17.0364 15.6816 17.008 15.5036 17.032 15.3289C16.949 15.4104 16.8941 15.5163 16.8754 15.6311C16.8567 15.746 16.8752 15.8638 16.9281 15.9674C16.8687 16.0328 16.7915 16.1159 16.7053 16.2021C16.5569 16.1696 16.4232 16.0892 16.325 15.9733C16.2268 15.8574 16.1694 15.7123 16.1618 15.5605V15.4774L16.0935 15.4507C16.0033 15.4225 15.9198 15.376 15.8483 15.3142C15.7767 15.2524 15.7187 15.1765 15.6777 15.0913C15.6203 14.954 15.6098 14.8015 15.648 14.6577C15.7067 14.6708 15.7663 14.6797 15.8262 14.6844C15.8866 14.6875 15.9471 14.6875 16.0074 14.6844C16.2451 14.6839 16.4801 14.6334 16.697 14.5361C16.914 14.4389 17.108 14.2972 17.2667 14.1201L19.7673 14.1469ZM17.8517 12.1214L18.3388 12.4184L18.4606 12.4896C18.2079 12.5585 17.9789 12.6951 17.7983 12.8846L17.7864 12.8935C17.7448 12.9381 17.7062 12.9826 17.6676 13.0302L17.6438 13.0599C17.6062 13.1074 17.5706 13.1569 17.5369 13.2084L17.5191 13.2351C17.4775 13.2945 17.4389 13.3598 17.4003 13.4252C17.2675 13.6896 17.0698 13.9161 16.8257 14.0833C16.5816 14.2506 16.299 14.3532 16.0044 14.3815C15.7109 14.3522 15.4296 14.2492 15.1866 14.082C14.9436 13.9148 14.7468 13.6888 14.6145 13.4252C14.5759 13.3598 14.5373 13.2975 14.4987 13.2381L14.4749 13.2054L14.371 13.0628L14.3443 13.0302C14.3056 12.9826 14.267 12.9381 14.2284 12.8965L14.2225 12.8728C14.0415 12.6842 13.8125 12.5486 13.5602 12.4807L13.6849 12.4094L14.172 12.1125L14.6709 11.8155L16.0044 12.5669L17.3409 11.8392L17.8517 12.1214ZM17.1924 11.5274L16.1262 12.0887V9.81076L17.5726 9.32072L17.1924 11.5274ZM16.0044 9.56723L14.4215 8.94057C14.5551 8.62279 15.1788 8.34659 16.0044 8.34659C16.8301 8.34659 17.4538 8.61982 17.5904 8.94057L16.0044 9.56723Z" fill="#222220"/>
</svg>
