<svg width="40" height="40" viewBox="0 0 40 40" fill="none" xmlns="http://www.w3.org/2000/svg">
<path fill-rule="evenodd" clip-rule="evenodd" d="M16.6738 24.0686L16.6735 24.0683L16.6739 24.068L16.6739 24.0679L16.674 24.0679L25.9476 15.6992C26.3546 15.3379 25.8587 15.1618 25.3184 15.4894L13.8729 22.7103L8.92909 21.1672C7.86144 20.8403 7.85378 20.1067 9.16879 19.5792L28.4338 12.1507C29.3137 11.7512 30.1629 12.362 29.827 13.7087L26.5462 29.1692C26.3171 30.2679 25.6533 30.5306 24.7335 30.0232L19.7358 26.3308L17.3336 28.6667C17.326 28.6741 17.3184 28.6814 17.3109 28.6887C17.0423 28.9503 16.82 29.1667 16.3336 29.1667L16.6738 24.0686Z" fill="#0088CC"/>
</svg>
