<svg width="40" height="40" viewBox="0 0 40 40" fill="none" xmlns="http://www.w3.org/2000/svg">
<path fill-rule="evenodd" clip-rule="evenodd" d="M21.0464 27.4488C21.0464 27.4488 21.4314 27.4054 21.6286 27.1906C21.8091 26.9937 21.8029 26.6222 21.8029 26.6222C21.8029 26.6222 21.7789 24.8876 22.5729 24.6315C23.3555 24.3796 24.3603 26.309 25.4266 27.0509C26.2321 27.6118 26.8436 27.489 26.8436 27.489L29.6932 27.4488C29.6932 27.4488 31.1831 27.3557 30.4768 26.1671C30.4183 26.0698 30.0646 25.2877 28.3586 23.6811C26.5713 21.9994 26.8112 22.2714 28.9628 19.3619C30.2733 17.5903 30.7971 16.5086 30.6333 16.0461C30.4778 15.6037 29.5137 15.7212 29.5137 15.7212L26.3062 15.7413C26.3062 15.7413 26.0683 15.7085 25.892 15.8154C25.7198 15.9202 25.6082 16.1647 25.6082 16.1647C25.6082 16.1647 25.1011 17.5352 24.4239 18.7015C22.9955 21.1611 22.4247 21.2913 22.191 21.1389C21.6474 20.7822 21.783 19.708 21.783 18.945C21.783 16.5605 22.1399 15.5667 21.0892 15.3095C20.7407 15.2238 20.484 15.1677 19.5919 15.1582C18.4472 15.1465 17.4789 15.1624 16.9301 15.4344C16.5649 15.6154 16.2832 16.0197 16.4554 16.0429C16.6672 16.0715 17.1471 16.1742 17.4017 16.5256C17.7304 16.9796 17.7189 17.9977 17.7189 17.9977C17.7189 17.9977 17.9078 20.8045 17.2776 21.1527C16.8456 21.3919 16.2529 20.904 14.9789 18.6719C14.3268 17.5289 13.8343 16.2652 13.8343 16.2652C13.8343 16.2652 13.7394 16.0292 13.5693 15.9022C13.3637 15.7487 13.0768 15.7011 13.0768 15.7011L10.029 15.7212C10.029 15.7212 9.57091 15.7339 9.40292 15.9361C9.25371 16.1149 9.39145 16.4864 9.39145 16.4864C9.39145 16.4864 11.7777 22.1496 14.4802 25.004C16.9583 27.6203 19.7713 27.4488 19.7713 27.4488H21.0464Z" fill="#45668E"/>
</svg>
