<svg width="30" height="28" viewBox="0 0 30 28" fill="none" xmlns="http://www.w3.org/2000/svg">
<path fill-rule="evenodd" clip-rule="evenodd" d="M4.4752 8.62651C6.77575 5.36074 10.5311 3.41109 14.5208 3.41109C16.2703 3.41109 18.0047 3.78995 19.5916 4.51357C19.5103 4.45278 19.4287 4.39329 19.347 4.33511C17.2956 2.87852 14.8878 2.10864 12.3839 2.10864C8.46385 2.10864 4.77364 4.02442 2.51332 7.23331C0.650478 9.8775 -0.0750647 13.0916 0.470336 16.2838C1.01552 19.4757 2.76656 22.2636 5.40035 24.1336C5.48015 24.1905 5.56146 24.2465 5.64364 24.3019C1.58038 20.0732 1.0352 13.5095 4.4752 8.62651Z" fill="#E3672A"/>
<path fill-rule="evenodd" clip-rule="evenodd" d="M22.4105 21.3605C20.11 24.6262 16.3544 26.5759 12.3643 26.5761H12.3636C10.6152 26.5761 8.88187 26.1975 7.29541 25.4745C7.37607 25.5351 7.45717 25.5941 7.53848 25.6519C9.5899 27.1085 11.9977 27.8783 14.5015 27.8783C18.4218 27.8783 22.1116 25.9626 24.3722 22.7537C26.235 20.1095 26.9606 16.8954 26.4154 13.7032C25.87 10.5112 24.1191 7.72333 21.4853 5.85336C21.4051 5.79626 21.3234 5.74003 21.2408 5.68445C25.3057 9.91267 25.8509 16.4764 22.4105 21.3605Z" fill="#1A1919"/>
<path fill-rule="evenodd" clip-rule="evenodd" d="M10.723 16.2474C10.5775 16.2871 9.45686 16.293 5.06624 15.9973C4.55553 15.9629 4.91938 18.105 5.50351 18.492C5.9011 18.7553 7.1051 18.6349 7.1051 18.6349C7.1051 18.6349 7.10576 18.8234 6.89142 18.9253C6.67708 19.0272 6.02348 19.3368 6.02348 19.3368C5.58157 19.8733 8.26147 21.5939 9.81873 21.1342L11.5248 20.0525C11.5248 20.0525 11.4805 20.3654 11.3045 20.6162C11.2099 20.7498 10.9605 20.9952 10.5491 21.4517C10.5491 21.4517 11.7451 21.5496 12.1976 20.9794C12.6825 20.3198 13.8078 18.8982 13.7648 18.959C13.7648 18.959 17.1334 21.8718 18.3618 22.4301C20.4801 23.3933 21.4221 23.695 22.8411 24.4002C24.1126 25.0319 26.7905 25.5724 27.9548 24.8884C29.008 24.2698 29.3387 23.6705 29.3387 23.6705L18.0363 16.0588C18.0363 16.0588 18.729 15.6381 19.6412 15.0553C19.9343 14.8674 20.6977 15.0143 20.6977 15.0143C20.6977 15.0143 20.6322 14.4652 19.9462 14.2297C19.4659 14.0656 18.4716 13.6925 18.4716 13.6925C18.0787 13.7779 16.1774 14.3428 14.8047 13.2585C13.2151 12.0049 5.11387 1.38989 3.39387 0C3.39387 0 2.85405 0.426692 2.49815 1.02671C1.53362 2.65277 1.89218 4.14123 2.38833 4.99593C3.62739 7.13072 4.65013 9.11996 5.39237 10.7288C6.00959 12.0665 8.54328 14.5174 9.36888 15.2809C10.045 15.9067 10.723 16.2474 10.723 16.2474Z" fill="#C5A664"/>
</svg>
