<svg width="32" height="32" viewBox="0 0 32 32" fill="none" xmlns="http://www.w3.org/2000/svg">
<path d="M32 16C32 7.16344 24.8366 0 16 0C7.16344 0 0 7.16344 0 16C0 24.8366 7.16344 32 16 32C24.8366 32 32 24.8366 32 16Z" fill="#2F9A41"/>
<path d="M24.9319 9.4881C24.6995 9.15814 24.4696 8.82817 24.2671 8.49561L11.8414 15.9158L5.84343 12.3408C5.70576 12.7266 5.62161 13.1308 5.59351 13.5412L11.8988 17.337L24.9319 9.4881Z" fill="white"/>
<path d="M11.8415 18.7087L5.3987 14.8635C5.35102 15.1 5.33171 15.3417 5.34122 15.5832C5.34122 18.5231 6.46459 21.3425 8.46422 23.4213C10.4638 25.5003 13.1759 26.6681 16.0039 26.6681C18.8317 26.6681 21.5437 25.5003 23.5435 23.4213C25.5431 21.3425 26.6664 18.5231 26.6664 15.5832C26.6784 13.8292 26.2823 12.0981 25.5119 10.5376L11.8415 18.7087Z" fill="white"/>
<path d="M23.4 7.56542C23.0963 7.26745 22.7776 6.98646 22.4453 6.72363L11.8414 13.1228L6.7282 10.0882C6.55576 10.4182 6.38082 10.7793 6.17839 11.169L11.784 14.5336L23.4 7.56542Z" fill="white"/>
<path d="M21.4055 6.00416C21.0041 5.75438 20.5867 5.53388 20.1559 5.34424L11.8413 10.3223L8.11506 8.13722C7.86515 8.39704 7.61523 8.7374 7.36533 9.06736L11.8138 11.7123L21.4055 6.00416Z" fill="white"/>
</svg>
