<svg width="40" height="40" viewBox="0 0 40 40" fill="none" xmlns="http://www.w3.org/2000/svg">
<path fill-rule="evenodd" clip-rule="evenodd" d="M21.9495 15.1614C21.9495 13.983 20.9565 13.0248 19.7357 13.0248C18.516 13.0248 17.522 13.983 17.522 15.1614C17.522 16.3389 18.516 17.2977 19.7357 17.2977C20.9565 17.2977 21.9495 16.3389 21.9495 15.1614ZM25.0837 15.1612C25.0837 18.0065 22.6863 20.3209 19.7372 20.3209C16.7886 20.3209 14.3906 18.0065 14.3906 15.1612C14.3906 12.315 16.7886 10 19.7372 10C22.6863 10 25.0837 12.315 25.0837 15.1612ZM25.0178 23.2922C24.051 23.8783 23.0014 24.2939 21.9131 24.5333L24.902 27.4186C25.5143 28.0085 25.5143 28.9663 24.902 29.5568C24.2903 30.1472 23.299 30.1472 22.6879 29.5568L19.7493 26.7214L16.8133 29.5568C16.5071 29.8517 16.106 29.9993 15.7048 29.9993C15.3043 29.9993 14.9038 29.8517 14.5977 29.5568C13.986 28.9663 13.986 28.0091 14.597 27.4186L17.5862 24.5333C16.4979 24.2939 15.4483 23.8777 14.4815 23.2922C13.7499 22.8469 13.5301 21.914 13.9911 21.2072C14.4508 20.4995 15.4176 20.2864 16.1505 20.7317C18.3392 22.0607 21.1588 22.061 23.3489 20.7317C24.0818 20.2864 25.0482 20.4995 25.5088 21.2072C25.9698 21.9134 25.7494 22.8469 25.0178 23.2922Z" fill="#F68634"/>
</svg>
